# xmcd CD database file generated by MAGIX-FreeDB-MP3_Maker_15 v2.0beta1
# 
# Track frame offsets:
#      150
#      17047
#      34282
#      48235
#      61782
#      74652
#      88047
#      106322
#      120752
#      137905
#      152387
#      165765
#      180335
#      193722
# 
# Disc length: 2774 seconds
# 
# Revision: 2 
# Processed by: cddbd v1.5.2PL0 Copyright (c) Steve Scherf et al.
# Submitted via: MAGIX-FreeDB-MP3_Maker_15 v2.0beta1
# 
DISCID=a90ad40e
DTITLE=Peter Hofmann - Love Me Tender
DYEAR=1992
DGENRE=Oldies
TTITLE0=Peter Hofmann - His Latest Flame
TTITLE1=Peter Hofmann - Surrender
TTITLE2=Peter Hofmann - Are You Lonesome Tonight
TTITLE3=Peter Hofmann - Kiss Me Quicjk
TTITLE4=Peter Hofmann - She's Not You
TTITLE5=Peter Hofmann - Love Me
TTITLE6=Peter Hofmann - It's Now Or Never
TTITLE7=Peter Hofmann - Little Sister
TTITLE8=Peter Hofmann - Crying In The Chapel
TTITLE9=Peter Hofmann - Don't
TTITLE10=Peter Hofmann - A Fool Such As I
TTITLE11=Peter Hofmann - Can't Help Falling In Love
TTITLE12=Peter Hofmann - Good Look Charme
TTITLE13=Peter Hofmann - Love Me Tender
EXTD=Peter Hoffmann singt Elvis
EXTT0=
EXTT1=
EXTT2=
EXTT3=
EXTT4=
EXTT5=
EXTT6=
EXTT7=
EXTT8=
EXTT9=
EXTT10=
EXTT11=
EXTT12=
EXTT13=
PLAYORDER=
